/* XPM */
static char * doublecontact_32x32_xpm[] = {
"32 32 96 2",
"  	c None",
". 	c #0000FF",
"+ 	c #006CF0",
"@ 	c #006DF0",
"# 	c #006DF0",
"$ 	c #006EF0",
"% 	c #006DF1",
"& 	c #006CF0",
"* 	c #006EEE",
"= 	c #006DF1",
"- 	c #006DF0",
"; 	c #006DF0",
"> 	c #0080FF",
", 	c #006CEF",
"' 	c #006EF1",
") 	c #006BEF",
"! 	c #006EEF",
"~ 	c #006DF0",
"{ 	c #006DF0",
"] 	c #0071F0",
"^ 	c #006DF0",
"/ 	c #006DF1",
"( 	c #006DF0",
"_ 	c #006AF1",
": 	c #006CF0",
"< 	c #0060FF",
"[ 	c #006EEF",
"} 	c #006EF1",
"| 	c #006BF2",
"1 	c #006CF2",
"2 	c #006CF1",
"3 	c #006DF0",
"4 	c #006EF0",
"5 	c #006DEF",
"6 	c #006EF1",
"7 	c #006DF0",
"8 	c #006DF0",
"9 	c #006CF0",
"0 	c #006CF1",
"a 	c #006CF0",
"b 	c #006DF0",
"c 	c #006DF0",
"d 	c #006DEF",
"e 	c #006EEF",
"f 	c #006DF0",
"g 	c #006DF0",
"h 	c #006CF0",
"i 	c #006CF0",
"j 	c #006DEF",
"k 	c #006DF0",
"l 	c #006DF0",
"m 	c #006FEE",
"n 	c #006DF0",
"o 	c #006DF0",
"p 	c #006CF1",
"q 	c #0073F2",
"r 	c #006AEA",
"s 	c #006DF0",
"t 	c #006DF0",
"u 	c #006EF0",
"v 	c #006EF0",
"w 	c #006DF0",
"x 	c #006DF0",
"y 	c #006DF1",
"z 	c #006DF0",
"A 	c #006DFF",
"B 	c #006EF1",
"C 	c #006EF0",
"D 	c #006DF1",
"E 	c #006DF0",
"F 	c #006CF0",
"G 	c #006FEE",
"H 	c #006DF0",
"I 	c #006DF0",
"J 	c #006DEF",
"K 	c #006DEF",
"L 	c #0071E3",
"M 	c #006DF0",
"N 	c #006DF0",
"O 	c #006CEF",
"P 	c #006DEF",
"Q 	c #0070F3",
"R 	c #006CF0",
"S 	c #006FF1",
"T 	c #006EF0",
"U 	c #006EF1",
"V 	c #006FF4",
"W 	c #006EF1",
"X 	c #006EEF",
"Y 	c #006DEF",
"Z 	c #006DF0",
"` 	c #006CF0",
" .	c #006CF1",
"..	c #006DF0",
"+.	c #006DF0",
"@.	c #000000",
"        + @ +.+.+.+.+.+.+.+.+.+.+.+.+.+.+.+.+.+.+.+.+.+.+.#     ",
"        +.+.+.+.+.+.+.+.+.+.+.+.+.+.+.+.+.+.+.+.+.+.+.+.+.+.&   ",
"        = - +.+.+.+.+.+.+.+.+.+.+.+.+.+.+.+.+.+.+.+.+.+.+.+.;   ",
"              +.+.+.+.+.+.+.+.+.+.+.+.+.+.+.+.+.+.+.+.+.+.+.;   ",
"  ~ +.+.+.{   ^ +.+.+.+.+.+.+.+.+.+.+.+.+.+.+.+.+.+.+.+.+.+.;   ",
"  / +.+.+.(   : +.+.+.+.+.+.+.+.+.+.+.+.+.+.+.+.+.+.+.+.+.+.;   ",
"              +.+.+.+.+.+.+.+.+.+.+.+.+.+.+.+.+.+.+.+.+.+.+.;   ",
"        2 3 +.+.+.+.+.+.+.+.4     7 +.+.+.+.+.+.+.+.+.+.+.+.;   ",
"        +.+.+.+.+.+.+.+.8             +.+.+.+.+.+.+.+.+.+.+.;   ",
"        +.+.+.+.+.+.+.+.a             +.+.+.+.b c +.+.+.+.+.;   ",
"            e +.+.+.+.f               +.+.+.+.    ( +.+.+.+.;   ",
"    # k k l   n +.+.+.o             s +.+.b   t   u +.+.+.+.;   ",
"  l +.+.+.+.  w +.+.+.x       +.# y +.+.z &   B C   s +.+.+.;   ",
"    2 E E     +.+.+.+.        +.+.+.+.I   J K   M   N +.+.+.;   ",
"          P b +.+.+.+.        +.+.+.+.+.    y   R     +.+.+.;   ",
"        +.+.+.+.+.+.+.        +.+.+.+.+.o   #   W     +.+.+.;   ",
"        +.+.+.+.+.+.+.        +.+.+.+.+.o   #   W     +.+.+.;   ",
"          P b +.+.+.+.        +.+.+.+.+.    Y   R     +.+.+.;   ",
"    2 E E     +.+.+.+.        +.+.+.+.I   J u   M   N +.+.+.;   ",
"  l +.+.+.+.  w +.+.+.x       +.# y +.+.z Z   B C   s +.+.+.;   ",
"    # k k l   n +.+.+.o             s +.+.b   t   u +.+.+.+.;   ",
"            e +.+.+.+.f               +.+.+.+.    ( +.+.+.+.;   ",
"        +.+.+.+.+.+.+.+.`             +.+.+.+.b c +.+.+.+.+.;   ",
"        +.+.+.+.+.+.+.+.@             +.+.+.+.+.+.+.+.+.+.+.;   ",
"        2 3 +.+.+.+.+.+.+.+...    7 +.+.+.+.+.+.+.+.+.+.+.+.;   ",
"              +.+.+.+.+.+.+.+.+.+.+.+.+.+.+.+.+.+.+.+.+.+.+.;   ",
"  / +.+.+.(   : +.+.+.+.+.+.+.+.+.+.+.+.+.+.+.+.+.+.+.+.+.+.;   ",
"  ~ +.+.+.{   ^ +.+.+.+.+.+.+.+.+.+.+.+.+.+.+.+.+.+.+.+.+.+.;   ",
"              +.+.+.+.+.+.+.+.+.+.+.+.+.+.+.+.+.+.+.+.+.+.+.;   ",
"        = - +.+.+.+.+.+.+.+.+.+.+.+.+.+.+.+.+.+.+.+.+.+.+.+.;   ",
"        +.+.+.+.+.+.+.+.+.+.+.+.+.+.+.+.+.+.+.+.+.+.+.+.+.+.&   ",
"        + @ +.+.+.+.+.+.+.+.+.+.+.+.+.+.+.+.+.+.+.+.+.+.+.#     "};
